 <!-- Copyright 2000-2022 JetBrains s.r.o. and contributors. Use of this source code is governed by the Apache 2.0 license. -->
<svg
   width="16"
   height="16"
   viewBox="0 0 16 16"
   fill="none"
  
   xmlns="http://www.w3.org/2000/svg" >
   
  <path 
     d="M 4.1875 4.6113281 C 3.0028012 4.6113281 1.9105146 5.0900243 1.484375 6.2832031 L 2.6835938 6.5546875 C 2.8710936 6.090198 3.346626 5.6425781 4.203125 5.6425781 C 5.0256242 5.6425781 5.4492187 6.0729739 5.4492188 6.8144531 L 5.4492188 6.8457031 C 5.4492188 7.3101927 4.9711207 7.3011401 3.7949219 7.4375 C 2.5549231 7.5823899 1.2851563 7.9054096 1.2851562 9.3925781 C 1.2851562 10.679577 2.251695 11.388672 3.4960938 11.388672 C 4.5783926 11.388672 5.1887408 10.837656 5.4316406 10.347656 L 5.4824219 10.347656 L 5.4824219 11.242188 L 6.7265625 11.242188 L 6.7265625 6.8964844 C 6.7265625 4.9916563 5.227299 4.6113281 4.1875 4.6113281 z M 12.175781 4.6113281 C 10.991082 4.6113281 9.8987958 5.0900243 9.4726562 6.2832031 L 10.669922 6.5546875 C 10.857422 6.090198 11.334907 5.6425781 12.191406 5.6425781 C 13.013905 5.6425781 13.4375 6.0729739 13.4375 6.8144531 L 13.4375 6.8457031 C 13.4375 7.3101927 12.959402 7.3011401 11.783203 7.4375 C 10.543204 7.5823899 9.2734375 7.9054096 9.2734375 9.3925781 C 9.2734375 10.679577 10.239976 11.388672 11.484375 11.388672 C 12.566674 11.388672 13.177022 10.837656 13.419922 10.347656 L 13.470703 10.347656 L 13.470703 11.242188 L 14.714844 11.242188 L 14.714844 6.8964844 C 14.714844 4.9916563 13.21558 4.6113281 12.175781 4.6113281 z M 5.453125 8.0390625 L 5.453125 8.8828125 C 5.453125 9.6584317 4.8345363 10.365234 3.7734375 10.365234 C 3.0533382 10.365234 2.5332031 10.040856 2.5332031 9.4101562 C 2.5332031 8.7283269 3.1378007 8.4866918 3.875 8.3886719 C 4.2883995 8.3332819 5.2699252 8.2223023 5.453125 8.0390625 z M 13.441406 8.0390625 L 13.441406 8.8828125 C 13.441406 9.6584317 12.822818 10.365234 11.761719 10.365234 C 11.041619 10.365234 10.521484 10.040856 10.521484 9.4101562 C 10.521484 8.7283269 11.126082 8.4866918 11.863281 8.3886719 C 12.276681 8.3332819 13.258206 8.2223023 13.441406 8.0390625 z "
     style="fill:#6c707e;fill-opacity:1" />
</svg>
